<?xml version="1.0" standalone="no"?><!DOCTYPE svg PUBLIC "-//W3C//DTD SVG 1.1//EN" "http://www.w3.org/Graphics/SVG/1.1/DTD/svg11.dtd"><svg t="1626057750579" class="icon" viewBox="0 0 1024 1024" version="1.1" xmlns="http://www.w3.org/2000/svg" p-id="10530" xmlns:xlink="http://www.w3.org/1999/xlink" width="128" height="128"><defs><style type="text/css"></style></defs><path d="M192 128a64 64 0 0 0-64 64v128a64 64 0 0 0 64 64h128a64 64 0 0 0 64-64V192a64 64 0 0 0-64-64H192z m0-64h128a128 128 0 0 1 128 128v128a128 128 0 0 1-128 128H192a128 128 0 0 1-128-128V192a128 128 0 0 1 128-128z m512 576a64 64 0 0 0-64 64v128a64 64 0 0 0 64 64h128a64 64 0 0 0 64-64v-128a64 64 0 0 0-64-64h-128z m0-64h128a128 128 0 0 1 128 128v128a128 128 0 0 1-128 128h-128a128 128 0 0 1-128-128v-128a128 128 0 0 1 128-128z m-512 64a64 64 0 0 0-64 64v128a64 64 0 0 0 64 64h128a64 64 0 0 0 64-64v-128a64 64 0 0 0-64-64H192z m0-64h128a128 128 0 0 1 128 128v128a128 128 0 0 1-128 128H192a128 128 0 0 1-128-128v-128a128 128 0 0 1 128-128z m576-192a128 128 0 1 0 0-256 128 128 0 0 0 0 256z m0 64a192 192 0 1 1 0-384 192 192 0 0 1 0 384z" p-id="10531" fill="#f86401"></path></svg>